<svg width="260" height="54" viewBox="0 0 260 54" fill="none" xmlns="http://www.w3.org/2000/svg">
<path d="M0 0.883057V13.1621C7.9264 13.1621 14.3536 19.4719 14.3536 27.2535C14.3536 35.0351 7.9264 41.3449 0 41.3449V53.6278H56.1032V0.883057H0Z" fill="#D72323"/>
<path d="M56.0993 14.129H26.6327V40.3781H56.0993V14.129Z" fill="#EEEEEE"/>
<path d="M42.5833 14.129H26.6327V40.3781H42.5833V14.129Z" fill="#CBCBCB"/>
<path d="M65.8242 16.3259V12.2065H90.0882V16.3259H80.1415V46.3671H75.771V16.3259H65.8242Z" fill="#D72323"/>
<path d="M99.522 15.4216H94.9003V10.7999H99.522V15.4216ZM99.2709 46.3671H95.1515V21.5002H99.2709V46.3671Z" fill="#D72323"/>
<path d="M111.066 32.4517V35.4156C111.066 37.9609 111.535 39.8866 112.472 41.1927C113.41 42.4654 114.9 43.1017 116.943 43.1017C118.953 43.1017 121.113 42.5826 123.424 41.5444L124.68 45.0107C121.933 46.2498 119.271 46.8694 116.692 46.8694C113.477 46.8694 111.032 45.8479 109.358 43.805C107.683 41.7621 106.846 38.9656 106.846 35.4156V32.4517C106.846 28.9016 107.683 26.1052 109.358 24.0622C111.032 22.0193 113.477 20.9978 116.692 20.9978C117.898 20.9978 119.137 21.1653 120.41 21.5002C121.716 21.8016 123.022 22.237 124.328 22.8063L123.072 26.3229C121.967 25.854 120.895 25.4856 119.857 25.2177C118.852 24.9497 117.881 24.8158 116.943 24.8158C114.9 24.8158 113.41 25.4688 112.472 26.775C111.535 28.0476 111.066 29.9399 111.066 32.4517Z" fill="#D72323"/>
<path d="M146.041 46.3671L139.058 34.863C138.422 35.4993 137.752 36.1524 137.049 36.8222C136.345 37.492 135.609 38.1618 134.838 38.8316V46.3671H130.719V9.19235H134.838V34.2099C137.015 32.1 138.941 30.0403 140.616 28.0309C142.324 26.0214 143.881 23.8445 145.287 21.5002H150.01C148.804 23.5096 147.565 25.3684 146.292 27.0764C145.053 28.7509 143.646 30.459 142.072 32.2005L151.014 46.3671H146.041Z" fill="#D72323"/>
<path d="M173.676 44.9102C172.169 45.647 170.661 46.1494 169.154 46.4173C167.647 46.7187 166.257 46.8694 164.985 46.8694C161.401 46.8694 158.722 45.8479 156.947 43.805C155.205 41.7621 154.335 38.9656 154.335 35.4156V32.4014C154.335 28.9519 155.205 26.1889 156.947 24.1125C158.722 22.036 161.217 20.9978 164.432 20.9978C166.14 20.9978 167.698 21.3495 169.104 22.0528C170.544 22.7226 171.683 23.7608 172.52 25.1674C173.391 26.5405 173.826 28.3156 173.826 30.4924C173.826 31.8991 173.625 33.5066 173.223 35.3151H158.404V35.4156C158.404 37.9609 158.923 39.8866 159.961 41.1927C161.033 42.4989 162.741 43.1519 165.085 43.1519C166.157 43.1519 167.329 43.018 168.602 42.75C169.908 42.4821 171.181 42.0635 172.42 41.4942L173.676 44.9102ZM164.432 24.6148C162.49 24.6148 161.016 25.2512 160.011 26.5238C159.04 27.763 158.504 29.5212 158.404 31.7986H169.657C169.757 31.1958 169.807 30.6264 169.807 30.0906C169.807 28.2151 169.272 26.842 168.2 25.9712C167.162 25.067 165.906 24.6148 164.432 24.6148Z" fill="#D72323"/>
<path d="M194.619 45.4628C192.744 46.4005 190.751 46.8694 188.641 46.8694C186.833 46.8694 185.409 46.501 184.371 45.7642C183.366 45.0274 182.646 44.0394 182.211 42.8003C181.809 41.5611 181.608 40.188 181.608 38.6809V25.1172H177.288V21.5002H181.608V14.5676H185.728V21.5002H193.866V25.1172H185.728V38.5302C185.728 40.2717 186.012 41.4774 186.582 42.1472C187.184 42.7835 188.105 43.1017 189.345 43.1017C189.947 43.1017 190.567 43.0347 191.203 42.9008C191.873 42.7333 192.593 42.4654 193.363 42.097L194.619 45.4628Z" fill="#D72323"/>
<path d="M230.722 38.1786H226.954V46.3671H222.835V38.1786H208.166V34.8128C210.745 30.8943 213.072 27.0764 215.149 23.3589C217.259 19.6415 219 15.924 220.373 12.2065H224.995C223.588 15.857 221.88 19.4907 219.871 23.1077C217.895 26.7247 215.617 30.459 213.039 34.3104H222.835V28.0811H226.954V34.3104H230.722V38.1786Z" fill="#D72323"/>
<path d="M236.69 12.2065H241.212V34.1094C241.212 36.8557 241.781 38.9991 242.92 40.5397C244.092 42.0802 245.9 42.8505 248.345 42.8505C250.824 42.8505 252.632 42.0802 253.771 40.5397C254.909 38.9991 255.479 36.8557 255.479 34.1094V12.2065H260V34.1094C260 38.0948 259.029 41.2262 257.086 43.5036C255.144 45.7475 252.23 46.8694 248.345 46.8694C244.427 46.8694 241.496 45.7475 239.554 43.5036C237.645 41.2262 236.69 38.0948 236.69 34.1094V12.2065Z" fill="#D72323"/>
</svg>
