<svg width="53" height="61" viewBox="0 0 53 61" fill="none" xmlns="http://www.w3.org/2000/svg">
<path d="M18.9286 3.8125V7.625H34.0714V3.8125C34.0714 1.70729 35.7632 0 37.8571 0C39.9511 0 41.6429 1.70729 41.6429 3.8125V7.625H47.3214C50.4565 7.625 53 10.1853 53 13.3438V19.0625H0V13.3438C0 10.1853 2.54234 7.625 5.67857 7.625H11.3571V3.8125C11.3571 1.70729 13.0489 0 15.1429 0C17.2368 0 18.9286 1.70729 18.9286 3.8125ZM0 22.875H53V55.2812C53 58.4385 50.4565 61 47.3214 61H5.67857C2.54234 61 0 58.4385 0 55.2812V22.875ZM7.57143 36.2188C7.57143 37.2672 8.41848 38.125 9.46429 38.125H13.25C14.2911 38.125 15.1429 37.2672 15.1429 36.2188V32.4062C15.1429 31.3578 14.2911 30.5 13.25 30.5H9.46429C8.41848 30.5 7.57143 31.3578 7.57143 32.4062V36.2188ZM22.7143 36.2188C22.7143 37.2672 23.5661 38.125 24.6071 38.125H28.3929C29.4339 38.125 30.2857 37.2672 30.2857 36.2188V32.4062C30.2857 31.3578 29.4339 30.5 28.3929 30.5H24.6071C23.5661 30.5 22.7143 31.3578 22.7143 32.4062V36.2188ZM39.75 30.5C38.7089 30.5 37.8571 31.3578 37.8571 32.4062V36.2188C37.8571 37.2672 38.7089 38.125 39.75 38.125H43.5357C44.5768 38.125 45.4286 37.2672 45.4286 36.2188V32.4062C45.4286 31.3578 44.5768 30.5 43.5357 30.5H39.75ZM7.57143 51.4688C7.57143 52.5172 8.41848 53.375 9.46429 53.375H13.25C14.2911 53.375 15.1429 52.5172 15.1429 51.4688V47.6562C15.1429 46.6078 14.2911 45.75 13.25 45.75H9.46429C8.41848 45.75 7.57143 46.6078 7.57143 47.6562V51.4688ZM24.6071 45.75C23.5661 45.75 22.7143 46.6078 22.7143 47.6562V51.4688C22.7143 52.5172 23.5661 53.375 24.6071 53.375H28.3929C29.4339 53.375 30.2857 52.5172 30.2857 51.4688V47.6562C30.2857 46.6078 29.4339 45.75 28.3929 45.75H24.6071ZM37.8571 51.4688C37.8571 52.5172 38.7089 53.375 39.75 53.375H43.5357C44.5768 53.375 45.4286 52.5172 45.4286 51.4688V47.6562C45.4286 46.6078 44.5768 45.75 43.5357 45.75H39.75C38.7089 45.75 37.8571 46.6078 37.8571 47.6562V51.4688Z" fill="#3A4750"/>
</svg>
