<svg width="98" height="100" viewBox="0 0 98 100" fill="none" xmlns="http://www.w3.org/2000/svg">
<path d="M14.8595 12.5C14.8595 5.5957 19.4845 0 24.8595 0C30.5158 0 34.8595 5.5957 34.8595 12.5C34.8595 19.4043 30.5158 25 24.8595 25C19.4845 25 14.8595 19.4043 14.8595 12.5ZM13.7502 93.75V78.125H10.9689C9.26265 78.125 8.05796 76.0352 8.59703 74.0039L13.4627 55.7617L8.98453 63.1445C7.31578 65.8984 4.17984 66.4453 1.97984 64.3555C-0.220942 62.2656 -0.652192 58.3398 1.01625 55.6055L10.2189 40.2539C13.7252 34.6484 19.2033 31.25 25.0002 31.25C30.8127 31.25 36.2814 34.6484 39.7814 40.2539L48.9845 55.6055C50.6564 58.3398 50.2189 62.2656 48.0158 64.3555C45.8283 66.4453 42.6876 65.8984 41.0158 63.1445L36.547 55.7813L41.2658 74.0039C41.9377 76.0352 40.7345 78.125 39.0314 78.125H36.2502V93.75C36.2502 97.207 34.0158 100 31.2502 100C28.4845 100 26.2502 97.207 26.2502 93.75V78.125H23.7502V93.75C23.7502 97.207 21.5158 100 18.7502 100C15.9845 100 13.7502 97.207 13.7502 93.75ZM65.0001 12.5C65.0001 5.5957 69.4845 0 75.0001 0C80.5158 0 85.0002 5.5957 85.0002 12.5C85.0002 19.4043 80.5158 25 75.0001 25C69.4845 25 65.0001 19.4043 65.0001 12.5ZM73.7501 75V93.75C73.7501 97.207 71.5158 100 68.7501 100C65.9845 100 63.7501 97.207 63.7501 93.75V58.6914L61.7345 62.6953C60.2658 65.625 57.172 66.5039 54.7033 64.668C52.5002 62.832 51.797 58.9648 53.2658 55.8789L61.3439 40.0195C64.0939 34.5508 68.8908 31.0742 74.0314 31.0742H75.9689C81.1252 31.0742 85.9064 34.5508 88.6564 40.0195L96.7345 55.8789C98.2033 58.9648 97.5002 62.832 95.1564 64.668C92.8283 66.5039 89.7345 65.625 88.2658 62.6953L86.2502 58.6914V93.75C86.2502 97.207 84.0158 100 81.2502 100C78.4845 100 76.2501 97.207 76.2501 93.75V75H73.7501Z" fill="#EEEEEE"/>
</svg>
