<svg width="100" height="100" viewBox="0 0 100 100" fill="none" xmlns="http://www.w3.org/2000/svg">
<circle cx="50" cy="50" r="50" fill="#3A4750"/>
<path d="M73.5529 25H26.345C23.4387 25 21 27.3984 21 30.3571V69.6429C21 72.6016 23.4387 75 26.3449 75H73.5529C76.5613 75 79 72.6016 79 69.6429V30.3571C79 27.3984 76.6623 25 73.5529 25ZM33.6077 66.9643C33.6077 67.4574 33.2012 67.8571 32.6999 67.8571H27.2528C26.7514 67.8571 26.345 67.4574 26.345 66.9643V61.6071C26.345 61.1141 26.7514 60.7143 27.2528 60.7143H32.5977C33.0991 60.7143 33.5056 61.1141 33.5056 61.6071L33.6077 66.9643ZM33.6077 52.6786C33.6077 53.1717 33.2012 53.5714 32.6999 53.5714H27.2528C26.7514 53.5714 26.345 53.1717 26.345 52.6786V47.3214C26.345 46.8283 26.7514 46.4286 27.2528 46.4286H32.5977C33.0991 46.4286 33.5056 46.8283 33.5056 47.3214V52.6786H33.6077ZM33.6077 38.3929C33.6077 38.8859 33.2012 39.2857 32.6999 39.2857H27.2528C26.7514 39.2857 26.345 38.8859 26.345 38.3929V33.0357C26.345 32.5426 26.7514 32.1429 27.2528 32.1429H32.5977C33.0991 32.1429 33.5056 32.5426 33.5056 33.0357L33.6077 38.3929ZM60.8431 66.0714C60.8431 67.0576 60.0301 67.8571 59.0274 67.8571H40.8705C39.8678 67.8571 39.0548 67.0576 39.0548 66.0714V55.3571C39.0548 54.3708 39.8678 53.5714 40.8705 53.5714H59.0274C60.0301 53.5714 60.8431 54.3708 60.8431 55.3571V66.0714ZM60.8431 44.6429C60.8431 45.629 60.0301 46.4286 59.0274 46.4286H40.8705C39.8678 46.4286 39.0548 45.629 39.0548 44.6429V33.9286C39.0548 32.9422 39.8678 32.1429 40.8705 32.1429H59.0274C60.0301 32.1429 60.8431 32.9422 60.8431 33.9286V44.6429ZM73.5529 66.9643C73.5529 67.4574 73.1464 67.8571 72.6451 67.8571H67.3001C66.7988 67.8571 66.4944 67.4574 66.4944 66.9643V61.6071C66.4944 61.1141 66.9009 60.7143 67.4023 60.7143H72.7472C73.2486 60.7143 73.6551 61.1141 73.6551 61.6071V66.9643H73.5529ZM73.5529 52.6786C73.5529 53.1717 73.1464 53.5714 72.6451 53.5714H67.3001C66.7988 53.5714 66.3923 53.1717 66.3923 52.6786V47.3214C66.3923 46.8283 66.7988 46.4286 67.3001 46.4286H72.6451C73.1464 46.4286 73.5529 46.8283 73.5529 47.3214V52.6786ZM73.5529 38.3929C73.5529 38.8859 73.1464 39.2857 72.6451 39.2857H67.3001C66.7988 39.2857 66.3923 38.8859 66.3923 38.3929V33.0357C66.3923 32.5426 66.7988 32.1429 67.198 32.1429H72.543C73.0443 32.1429 73.4508 32.5426 73.4508 33.0357V38.3929H73.5529Z" fill="#EEEEEE"/>
</svg>
