<svg width="58" height="50" viewBox="0 0 58 50" fill="none" xmlns="http://www.w3.org/2000/svg">
<path d="M52.5529 0H5.34495C2.43871 0 0 2.39844 0 5.35714V44.6429C0 47.6016 2.4387 50 5.34494 50H52.5529C55.5613 50 58 47.6016 58 44.6429V5.35714C58 2.39844 55.6623 0 52.5529 0ZM12.6077 41.9643C12.6077 42.4574 12.2012 42.8571 11.6999 42.8571H6.2528C5.75144 42.8571 5.34495 42.4574 5.34495 41.9643V36.6071C5.34495 36.1141 5.75144 35.7143 6.2528 35.7143H11.5977C12.0991 35.7143 12.5056 36.1141 12.5056 36.6071L12.6077 41.9643ZM12.6077 27.6786C12.6077 28.1717 12.2012 28.5714 11.6999 28.5714H6.2528C5.75144 28.5714 5.34495 28.1717 5.34495 27.6786V22.3214C5.34495 21.8283 5.75144 21.4286 6.2528 21.4286H11.5977C12.0991 21.4286 12.5056 21.8283 12.5056 22.3214V27.6786H12.6077ZM12.6077 13.3929C12.6077 13.8859 12.2012 14.2857 11.6999 14.2857H6.2528C5.75144 14.2857 5.34495 13.8859 5.34495 13.3929V8.03571C5.34495 7.54263 5.75144 7.14286 6.2528 7.14286H11.5977C12.0991 7.14286 12.5056 7.54263 12.5056 8.03571L12.6077 13.3929ZM39.8431 41.0714C39.8431 42.0576 39.0301 42.8571 38.0274 42.8571H19.8705C18.8678 42.8571 18.0548 42.0576 18.0548 41.0714V30.3571C18.0548 29.3708 18.8678 28.5714 19.8705 28.5714H38.0274C39.0301 28.5714 39.8431 29.3708 39.8431 30.3571V41.0714ZM39.8431 19.6429C39.8431 20.629 39.0301 21.4286 38.0274 21.4286H19.8705C18.8678 21.4286 18.0548 20.629 18.0548 19.6429V8.92857C18.0548 7.94219 18.8678 7.14286 19.8705 7.14286H38.0274C39.0301 7.14286 39.8431 7.94219 39.8431 8.92857V19.6429ZM52.5529 41.9643C52.5529 42.4574 52.1464 42.8571 51.6451 42.8571H46.3001C45.7988 42.8571 45.4944 42.4574 45.4944 41.9643V36.6071C45.4944 36.1141 45.9009 35.7143 46.4023 35.7143H51.7472C52.2486 35.7143 52.6551 36.1141 52.6551 36.6071V41.9643H52.5529ZM52.5529 27.6786C52.5529 28.1717 52.1464 28.5714 51.6451 28.5714H46.3001C45.7988 28.5714 45.3923 28.1717 45.3923 27.6786V22.3214C45.3923 21.8283 45.7988 21.4286 46.3001 21.4286H51.6451C52.1464 21.4286 52.5529 21.8283 52.5529 22.3214V27.6786ZM52.5529 13.3929C52.5529 13.8859 52.1464 14.2857 51.6451 14.2857H46.3001C45.7988 14.2857 45.3923 13.8859 45.3923 13.3929V8.03571C45.3923 7.54263 45.7988 7.14286 46.198 7.14286H51.543C52.0443 7.14286 52.4508 7.54263 52.4508 8.03571V13.3929H52.5529Z" fill="#EEEEEE"/>
</svg>
