<svg width="100" height="100" viewBox="0 0 100 100" fill="none" xmlns="http://www.w3.org/2000/svg">
<circle cx="50" cy="50" r="50" fill="#3A4750"/>
<path d="M86 37.8702C86 38.6651 85.742 39.4652 85.2111 40.1341L79.5907 47.2166C78.8797 48.1125 77.8334 48.5783 76.777 48.5783C75.9884 48.5783 75.1942 48.3184 74.5304 47.7832L68 42.5244V72.4839C68 75.5304 65.5824 78 62.6 78H37.4C34.4188 78 32 75.5292 32 72.4839V42.5244L25.3738 47.7877C24.8057 48.3163 24.0114 48.4772 23.2228 48.4772C22.1666 48.4772 21.1202 48.011 20.4092 47.1154L14.7889 40.1341C14.2579 39.4675 14 38.6631 14 37.8702C14 36.8058 14.4625 35.751 15.3511 35.034L30.5386 22.7835C31.9775 21.6309 33.7663 21 35.4988 21H39.38C40.2463 26.2127 44.6563 30.1935 50 30.1935C55.3438 30.1935 59.7571 26.2127 60.6189 21H64.3989C66.2383 21 68.0236 21.6309 69.4603 22.7893L84.6478 35.0397C85.5387 35.7556 86 36.8129 86 37.8702Z" fill="#EEEEEE"/>
</svg>
