<svg width="72" height="57" viewBox="0 0 72 57" fill="none" xmlns="http://www.w3.org/2000/svg">
<path d="M72 16.8702C72 17.6651 71.742 18.4652 71.2111 19.1341L65.5907 26.2166C64.8797 27.1125 63.8334 27.5783 62.777 27.5783C61.9884 27.5783 61.1942 27.3184 60.5304 26.7832L54 21.5244V51.4839C54 54.5304 51.5824 57 48.6 57H23.4C20.4188 57 18 54.5292 18 51.4839V21.5244L11.3738 26.7877C10.8057 27.3163 10.0114 27.4772 9.22278 27.4772C8.16663 27.4772 7.12016 27.011 6.40916 26.1154L0.788883 19.1341C0.257884 18.4675 0 17.6631 0 16.8702C0 15.8058 0.462487 14.751 1.35112 14.034L16.5386 1.78355C17.9775 0.630907 19.7663 0 21.4988 0H25.38C26.2463 5.21274 30.6563 9.19355 36 9.19355C41.3438 9.19355 45.7571 5.21274 46.6189 0H50.3989C52.2383 0 54.0236 0.630907 55.4603 1.78929L70.6478 14.0397C71.5387 14.7556 72 15.8129 72 16.8702Z" fill="#EEEEEE"/>
</svg>
