<svg width="55" height="50" viewBox="0 0 55 50" fill="none" xmlns="http://www.w3.org/2000/svg">
<path d="M53.3844 26.5737C54.4156 27.5781 55 28.9397 55 30.3571C55 31.7746 54.4156 33.1362 53.3844 34.1406C52.3531 35.1451 50.9552 35.7143 49.5 35.7143H5.5C4.04135 35.7143 2.64229 35.1451 1.61104 34.1406C0.579792 33.1362 0 31.7746 0 30.3571C0 28.9397 0.579792 27.5781 1.61104 26.5737C2.64229 25.5692 4.04135 25 5.5 25H49.5C50.9552 25 52.3531 25.5692 53.3844 26.5737ZM52.6281 39.8103C52.9719 40.1451 53.1667 40.6027 53.1667 41.0714V42.8571C53.1667 44.654 52.399 46.5737 51.024 47.9129C49.649 49.2522 47.6781 50 45.8333 50H9.16667C7.22219 50 5.35677 49.2522 3.98177 47.9129C2.60562 46.5737 1.83333 44.654 1.83333 42.8571V41.0714C1.83333 40.6027 2.02698 40.1451 2.37073 39.8103C2.71448 39.4754 3.18083 39.2857 3.66667 39.2857H51.3333C51.8146 39.2857 52.2844 39.4754 52.6281 39.8103ZM3.94052 21.0714C3.42948 20.8259 2.9826 20.4799 2.63198 20.0446C2.28135 19.6094 2.03844 19.1071 1.91927 18.5714C1.8001 18.0246 1.81042 17.4665 1.94677 16.9308C4.46646 7.2567 14.9531 0 27.5 0C40.0469 0 50.5312 7.2567 53.0521 16.9308C53.1896 17.4665 53.201 18.0246 53.075 18.5714C52.9604 19.1071 52.7198 19.6094 52.3646 20.0446C51.9177 20.4799 51.574 20.8259 51.0583 21.0714C50.5542 21.3058 49.9927 21.4286 49.4198 21.4286H5.57677C5.01073 21.4286 4.45042 21.3058 3.94052 21.0714ZM40.8719 9.45312C40.5281 9.78795 40.3333 10.2455 40.3333 10.7143C40.3333 11.0714 40.4365 11.4174 40.6427 11.7076C40.849 11.9978 41.0323 12.2321 41.4677 12.3661C41.8 12.3996 42.1667 12.5335 42.5219 12.4665C42.8771 12.3996 43.2094 12.2321 43.4615 11.9754C43.725 11.7299 43.8969 11.4063 43.9656 11.0603C44.0344 10.7143 43.8969 10.3571 43.8625 10.0335C43.725 9.60938 43.4844 9.4308 43.1865 9.22991C42.8885 9.02902 42.5333 8.82812 42.1667 8.82812C41.6854 8.82812 41.2156 9.1183 40.8719 9.45312ZM26.2052 5.88058C25.8615 6.2154 25.6667 6.66964 25.6667 7.14286C25.6667 7.49554 25.7698 7.84598 25.976 8.13616C26.1823 8.42634 26.3656 8.66071 26.801 8.79464C27.1333 8.82812 27.5 8.96205 27.8552 8.89509C28.2104 8.82812 28.5427 8.66071 28.7948 8.40402C29.0583 8.15848 29.2302 7.83482 29.299 7.49107C29.3677 7.14509 29.2302 6.78571 29.1958 6.45982C29.0583 6.13281 28.8177 5.85379 28.5198 5.65848C28.2219 5.46205 27.8667 5.2567 27.5 5.2567C27.0188 5.2567 26.549 5.54576 26.2052 5.88058ZM11.5385 9.45312C11.1948 9.78795 11 10.2455 11 10.7143C11 11.0714 11.1031 11.4174 11.3094 11.7076C11.5156 11.9978 11.699 12.2321 12.1344 12.3661C12.4667 12.3996 12.8333 12.5335 13.1885 12.4665C13.5438 12.3996 13.876 12.2321 14.1281 11.9754C14.3917 11.7299 14.5635 11.4063 14.6323 11.0603C14.701 10.7143 14.5635 10.3571 14.5292 10.0335C14.3917 9.60938 14.151 9.4308 13.8531 9.22991C13.5552 9.02902 13.2 8.82812 12.8333 8.82812C12.3521 8.82812 11.8823 9.1183 11.5385 9.45312Z" fill="#EEEEEE"/>
</svg>
