<svg width="47" height="42" viewBox="0 0 47 42" fill="none" xmlns="http://www.w3.org/2000/svg">
<path d="M45.6194 22.3219C46.5006 23.1656 47 24.3094 47 25.5C47 26.6906 46.5006 27.8344 45.6194 28.6781C44.7381 29.5219 43.5435 30 42.3 30H4.7C3.45352 30 2.25796 29.5219 1.37671 28.6781C0.495458 27.8344 0 26.6906 0 25.5C0 24.3094 0.495458 23.1656 1.37671 22.3219C2.25796 21.4781 3.45352 21 4.7 21H42.3C43.5435 21 44.7381 21.4781 45.6194 22.3219ZM44.9731 33.4406C45.2669 33.7219 45.4333 34.1063 45.4333 34.5V36C45.4333 37.5094 44.7773 39.1219 43.6023 40.2469C42.4273 41.3719 40.7431 42 39.1667 42H7.83333C6.17169 42 4.5776 41.3719 3.4026 40.2469C2.22662 39.1219 1.56667 37.5094 1.56667 36V34.5C1.56667 34.1063 1.73215 33.7219 2.0259 33.4406C2.31965 33.1594 2.71817 33 3.13333 33H43.8667C44.2779 33 44.6794 33.1594 44.9731 33.4406ZM3.36735 17.7C2.93065 17.4937 2.54877 17.2031 2.24915 16.8375C1.94952 16.4719 1.74194 16.05 1.6401 15.6C1.53827 15.1406 1.54708 14.6719 1.6636 14.2219C3.81679 6.09562 12.7781 0 23.5 0C34.2219 0 43.1813 6.09562 45.3354 14.2219C45.4529 14.6719 45.4627 15.1406 45.355 15.6C45.2571 16.05 45.0515 16.4719 44.7479 16.8375C44.366 17.2031 44.0723 17.4937 43.6317 17.7C43.2008 17.8969 42.721 18 42.2315 18H4.7656C4.2819 18 3.80308 17.8969 3.36735 17.7ZM34.9269 7.94062C34.6331 8.22187 34.4667 8.60625 34.4667 9C34.4667 9.3 34.5548 9.59062 34.731 9.83437C34.9073 10.0781 35.064 10.275 35.436 10.3875C35.72 10.4156 36.0333 10.5281 36.3369 10.4719C36.6404 10.4156 36.9244 10.275 37.1398 10.0594C37.365 9.85313 37.5119 9.58125 37.5706 9.29063C37.6294 9 37.5119 8.7 37.4825 8.42813C37.365 8.07188 37.1594 7.92187 36.9048 7.75312C36.6502 7.58437 36.3467 7.41562 36.0333 7.41562C35.6221 7.41562 35.2206 7.65937 34.9269 7.94062ZM22.3935 4.93969C22.0998 5.22094 21.9333 5.6025 21.9333 6C21.9333 6.29625 22.0215 6.59063 22.1977 6.83438C22.374 7.07812 22.5306 7.275 22.9027 7.3875C23.1867 7.41563 23.5 7.52812 23.8035 7.47187C24.1071 7.41562 24.391 7.275 24.6065 7.05938C24.8317 6.85313 24.9785 6.58125 25.0373 6.2925C25.096 6.00188 24.9785 5.7 24.9492 5.42625C24.8317 5.15156 24.626 4.91719 24.3715 4.75312C24.1169 4.58812 23.8133 4.41562 23.5 4.41562C23.0888 4.41562 22.6873 4.65844 22.3935 4.93969ZM9.86021 7.94062C9.56646 8.22187 9.4 8.60625 9.4 9C9.4 9.3 9.48812 9.59062 9.66438 9.83437C9.84062 10.0781 9.99729 10.275 10.3694 10.3875C10.6533 10.4156 10.9667 10.5281 11.2702 10.4719C11.5738 10.4156 11.8577 10.275 12.0731 10.0594C12.2983 9.85313 12.4452 9.58125 12.504 9.29063C12.5627 9 12.4452 8.7 12.4158 8.42813C12.2983 8.07188 12.0927 7.92187 11.8381 7.75312C11.5835 7.58437 11.28 7.41562 10.9667 7.41562C10.5554 7.41562 10.154 7.65937 9.86021 7.94062Z" fill="#3A4750"/>
</svg>
