<svg width="100" height="100" viewBox="0 0 100 100" fill="none" xmlns="http://www.w3.org/2000/svg">
<circle cx="50" cy="50" r="50" fill="#3A4750"/>
<path d="M76.3844 51.5737C77.4156 52.5781 78 53.9397 78 55.3571C78 56.7746 77.4156 58.1362 76.3844 59.1406C75.3531 60.1451 73.9552 60.7143 72.5 60.7143H28.5C27.0414 60.7143 25.6423 60.1451 24.611 59.1406C23.5798 58.1362 23 56.7746 23 55.3571C23 53.9397 23.5798 52.5781 24.611 51.5737C25.6423 50.5692 27.0414 50 28.5 50H72.5C73.9552 50 75.3531 50.5692 76.3844 51.5737ZM75.6281 64.8103C75.9719 65.1451 76.1667 65.6027 76.1667 66.0714V67.8571C76.1667 69.654 75.399 71.5737 74.024 72.9129C72.649 74.2522 70.6781 75 68.8333 75H32.1667C30.2222 75 28.3568 74.2522 26.9818 72.9129C25.6056 71.5737 24.8333 69.654 24.8333 67.8571V66.0714C24.8333 65.6027 25.027 65.1451 25.3707 64.8103C25.7145 64.4754 26.1808 64.2857 26.6667 64.2857H74.3333C74.8146 64.2857 75.2844 64.4754 75.6281 64.8103ZM26.9405 46.0714C26.4295 45.8259 25.9826 45.4799 25.632 45.0446C25.2814 44.6094 25.0384 44.1071 24.9193 43.5714C24.8001 43.0246 24.8104 42.4665 24.9468 41.9308C27.4665 32.2567 37.9531 25 50.5 25C63.0469 25 73.5312 32.2567 76.0521 41.9308C76.1896 42.4665 76.201 43.0246 76.075 43.5714C75.9604 44.1071 75.7198 44.6094 75.3646 45.0446C74.9177 45.4799 74.574 45.8259 74.0583 46.0714C73.5542 46.3058 72.9927 46.4286 72.4198 46.4286H28.5768C28.0107 46.4286 27.4504 46.3058 26.9405 46.0714ZM63.8719 34.4531C63.5281 34.7879 63.3333 35.2455 63.3333 35.7143C63.3333 36.0714 63.4365 36.4174 63.6427 36.7076C63.849 36.9978 64.0323 37.2321 64.4677 37.3661C64.8 37.3996 65.1667 37.5335 65.5219 37.4665C65.8771 37.3996 66.2094 37.2321 66.4615 36.9754C66.725 36.7299 66.8969 36.4063 66.9656 36.0603C67.0344 35.7143 66.8969 35.3571 66.8625 35.0335C66.725 34.6094 66.4844 34.4308 66.1865 34.2299C65.8885 34.029 65.5333 33.8281 65.1667 33.8281C64.6854 33.8281 64.2156 34.1183 63.8719 34.4531ZM49.2052 30.8806C48.8615 31.2154 48.6667 31.6696 48.6667 32.1429C48.6667 32.4955 48.7698 32.846 48.976 33.1362C49.1823 33.4263 49.3656 33.6607 49.801 33.7946C50.1333 33.8281 50.5 33.9621 50.8552 33.8951C51.2104 33.8281 51.5427 33.6607 51.7948 33.404C52.0583 33.1585 52.2302 32.8348 52.299 32.4911C52.3677 32.1451 52.2302 31.7857 52.1958 31.4598C52.0583 31.1328 51.8177 30.8538 51.5198 30.6585C51.2219 30.4621 50.8667 30.2567 50.5 30.2567C50.0188 30.2567 49.549 30.5458 49.2052 30.8806ZM34.5385 34.4531C34.1948 34.7879 34 35.2455 34 35.7143C34 36.0714 34.1031 36.4174 34.3094 36.7076C34.5156 36.9978 34.699 37.2321 35.1344 37.3661C35.4667 37.3996 35.8333 37.5335 36.1885 37.4665C36.5438 37.3996 36.876 37.2321 37.1281 36.9754C37.3917 36.7299 37.5635 36.4063 37.6323 36.0603C37.701 35.7143 37.5635 35.3571 37.5292 35.0335C37.3917 34.6094 37.151 34.4308 36.8531 34.2299C36.5552 34.029 36.2 33.8281 35.8333 33.8281C35.3521 33.8281 34.8823 34.1183 34.5385 34.4531Z" fill="#EEEEEE"/>
</svg>
