<svg width="479" height="97" viewBox="0 0 479 97" fill="none" xmlns="http://www.w3.org/2000/svg">
<path d="M0 0V22.5817C14.577 22.5817 26.397 34.1857 26.397 48.4964C26.397 62.807 14.577 74.411 0 74.411V97H103.176V0H0Z" fill="#D72323"/>
<path d="M103.169 24.3598H48.9788V72.6331H103.169V24.3598Z" fill="#EEEEEE"/>
<path d="M78.3127 24.3598H48.9788V72.6331H78.3127V24.3598Z" fill="#CBCBCB"/>
<path d="M121.054 28.4V20.8243H165.676V28.4H147.384V83.6471H139.346V28.4H121.054Z" fill="#D72323"/>
<path d="M183.025 26.7371H174.526V18.2375H183.025V26.7371ZM182.564 83.6471H174.988V37.9158H182.564V83.6471Z" fill="#D72323"/>
<path d="M204.255 58.056V63.5068C204.255 68.1877 205.117 71.7292 206.842 74.1313C208.566 76.4717 211.307 77.642 215.064 77.642C218.76 77.642 222.732 76.6873 226.982 74.778L229.292 81.1526C224.241 83.4315 219.345 84.5709 214.602 84.5709C208.689 84.5709 204.193 82.6924 201.114 78.9354C198.034 75.1783 196.494 70.0355 196.494 63.5068V58.056C196.494 51.5274 198.034 46.3846 201.114 42.6275C204.193 38.8705 208.689 36.992 214.602 36.992C216.819 36.992 219.098 37.2999 221.439 37.9158C223.841 38.4701 226.243 39.2708 228.645 40.3179L226.335 46.7849C224.303 45.9226 222.332 45.2451 220.422 44.7524C218.575 44.2597 216.789 44.0133 215.064 44.0133C211.307 44.0133 208.566 45.2143 206.842 47.6164C205.117 49.9568 204.255 53.4367 204.255 58.056Z" fill="#D72323"/>
<path d="M268.576 83.6471L255.734 62.4906C254.564 63.6608 253.332 64.8618 252.039 66.0937C250.745 67.3255 249.39 68.5573 247.974 69.7891V83.6471H240.398V15.2812H247.974V61.2896C251.977 57.4093 255.519 53.6215 258.598 49.926C261.739 46.2306 264.603 42.2272 267.19 37.9158H275.875C273.657 41.6113 271.378 45.0296 269.038 48.1707C266.759 51.2502 264.172 54.3914 261.277 57.5941L277.722 83.6471H268.576Z" fill="#D72323"/>
<path d="M319.397 80.9679C316.626 82.3229 313.854 83.2467 311.082 83.7394C308.311 84.2938 305.755 84.5709 303.414 84.5709C296.824 84.5709 291.897 82.6924 288.632 78.9354C285.43 75.1783 283.828 70.0355 283.828 63.5068V57.9637C283.828 51.6198 285.43 46.5385 288.632 42.7199C291.897 38.9013 296.485 36.992 302.398 36.992C305.539 36.992 308.403 37.6387 310.99 38.9321C313.638 40.1639 315.732 42.0732 317.272 44.66C318.874 47.1852 319.674 50.4496 319.674 54.453C319.674 57.0398 319.305 59.9962 318.566 63.3221H291.312V63.5068C291.312 68.1877 292.266 71.7292 294.176 74.1313C296.147 76.5333 299.288 77.7343 303.599 77.7343C305.57 77.7343 307.726 77.488 310.066 76.9952C312.468 76.5025 314.809 75.7326 317.087 74.6856L319.397 80.9679ZM302.398 43.6438C298.826 43.6438 296.116 44.814 294.268 47.1545C292.482 49.4333 291.496 52.6668 291.312 56.855H312.006C312.191 55.7464 312.283 54.6993 312.283 53.7139C312.283 50.2648 311.298 47.7396 309.327 46.1382C307.418 44.4752 305.108 43.6438 302.398 43.6438Z" fill="#D72323"/>
<path d="M357.914 81.9841C354.464 83.7087 350.8 84.5709 346.92 84.5709C343.594 84.5709 340.976 83.8934 339.067 82.5384C337.219 81.1834 335.895 79.3665 335.094 77.0876C334.355 74.8088 333.986 72.2835 333.986 69.512V44.5676H326.04V37.9158H333.986V25.1665H341.561V37.9158H356.528V44.5676H341.561V69.2348C341.561 72.4375 342.085 74.6548 343.132 75.8866C344.24 77.0568 345.934 77.642 348.213 77.642C349.322 77.642 350.461 77.5188 351.631 77.2724C352.863 76.9645 354.187 76.4717 355.604 75.7942L357.914 81.9841Z" fill="#D72323"/>
<path d="M424.308 68.5881H417.379V83.6471H409.803V68.5881H382.826V62.3982C387.569 55.1921 391.849 48.1707 395.668 41.3341C399.548 34.4975 402.751 27.6609 405.276 20.8243H413.776C411.189 27.5377 408.048 34.2204 404.352 40.8722C400.718 47.524 396.53 54.3914 391.788 61.4743H409.803V50.0184H417.379V61.4743H424.308V68.5881Z" fill="#D72323"/>
<path d="M435.284 20.8243H443.599V61.1048C443.599 66.1552 444.646 70.0971 446.74 72.9302C448.896 75.7634 452.222 77.18 456.718 77.18C461.276 77.18 464.602 75.7634 466.696 72.9302C468.79 70.0971 469.837 66.1552 469.837 61.1048V20.8243H478.152V61.1048C478.152 68.4341 476.365 74.1929 472.793 78.381C469.221 82.5076 463.862 84.5709 456.718 84.5709C449.512 84.5709 444.123 82.5076 440.55 78.381C437.04 74.1929 435.284 68.4341 435.284 61.1048V20.8243Z" fill="#D72323"/>
</svg>
