<svg width="58" height="58" viewBox="0 0 58 58" fill="none" xmlns="http://www.w3.org/2000/svg">
<path d="M57.898 41.5855C57.898 46.5903 53.0292 50.648 47.125 50.648C41.2208 50.648 36.352 46.5903 36.352 41.6875C36.352 36.6827 41.2208 32.727 47.125 32.727C48.4028 32.727 49.6115 32.9445 50.7511 33.2818V16.777L21.75 25.375L21.7497 48.9488C21.648 53.9445 16.8789 58 10.773 58C4.66719 58 0 53.9445 0 48.9375C0 43.9327 4.86883 39.977 10.773 39.977C12.0509 39.977 13.2596 40.1945 14.398 40.5318V14.3301C14.398 12.8608 15.5377 11.3134 16.9367 10.8727L53.0847 0.168789C53.4801 0.0749355 54.0691 0 54.375 0C56.3755 0 57.9966 1.62445 58 3.62387L57.898 41.5855Z" fill="#EEEEEE"/>
</svg>
