<svg width="100" height="100" viewBox="0 0 100 100" fill="none" xmlns="http://www.w3.org/2000/svg">
<circle cx="50" cy="50" r="50" fill="#3A4750"/>
<path d="M78.898 62.5855C78.898 67.5903 74.0292 71.648 68.125 71.648C62.2208 71.648 57.352 67.5903 57.352 62.6875C57.352 57.6827 62.2208 53.727 68.125 53.727C69.4028 53.727 70.6115 53.9445 71.7511 54.2818V37.777L42.75 46.375L42.7497 69.9488C42.648 74.9445 37.8789 79 31.773 79C25.6672 79 21 74.9445 21 69.9375C21 64.9327 25.8688 60.977 31.773 60.977C33.0509 60.977 34.2596 61.1945 35.398 61.5318V35.3301C35.398 33.8608 36.5377 32.3134 37.9367 31.8727L74.0847 21.1688C74.4801 21.0749 75.0691 21 75.375 21C77.3755 21 78.9966 22.6245 79 24.6239L78.898 62.5855Z" fill="#EEEEEE"/>
</svg>
