<svg width="92" height="40" viewBox="0 0 92 40" fill="none" xmlns="http://www.w3.org/2000/svg">
<g filter="url(#filter0_dd_73_5)">
<path d="M24.642 19.3636C24.642 21.8182 24.1989 23.9394 23.3125 25.7273C22.4261 27.5152 21.2102 28.8939 19.6648 29.8636C18.1193 30.8333 16.3542 31.3182 14.3693 31.3182C12.3845 31.3182 10.6193 30.8333 9.07386 29.8636C7.52841 28.8939 6.3125 27.5152 5.42614 25.7273C4.53977 23.9394 4.09659 21.8182 4.09659 19.3636C4.09659 16.9091 4.53977 14.7879 5.42614 13C6.3125 11.2121 7.52841 9.83333 9.07386 8.86364C10.6193 7.89394 12.3845 7.40909 14.3693 7.40909C16.3542 7.40909 18.1193 7.89394 19.6648 8.86364C21.2102 9.83333 22.4261 11.2121 23.3125 13C24.1989 14.7879 24.642 16.9091 24.642 19.3636ZM21.9148 19.3636C21.9148 17.3485 21.5777 15.6477 20.9034 14.2614C20.2367 12.875 19.3314 11.8258 18.1875 11.1136C17.0511 10.4015 15.7784 10.0455 14.3693 10.0455C12.9602 10.0455 11.6837 10.4015 10.5398 11.1136C9.40341 11.8258 8.49811 12.875 7.82386 14.2614C7.1572 15.6477 6.82386 17.3485 6.82386 19.3636C6.82386 21.3788 7.1572 23.0795 7.82386 24.4659C8.49811 25.8523 9.40341 26.9015 10.5398 27.6136C11.6837 28.3258 12.9602 28.6818 14.3693 28.6818C15.7784 28.6818 17.0511 28.3258 18.1875 27.6136C19.3314 26.9015 20.2367 25.8523 20.9034 24.4659C21.5777 23.0795 21.9148 21.3788 21.9148 19.3636ZM36.608 13.5455V15.8182H27.5625V13.5455H36.608ZM30.1989 9.36364H32.8807V26C32.8807 26.7576 32.9905 27.3258 33.2102 27.7045C33.4375 28.0758 33.7254 28.3258 34.0739 28.4545C34.4299 28.5758 34.8049 28.6364 35.1989 28.6364C35.4943 28.6364 35.7367 28.6212 35.9261 28.5909C36.1155 28.553 36.267 28.5227 36.3807 28.5L36.9261 30.9091C36.7443 30.9773 36.4905 31.0455 36.1648 31.1136C35.839 31.1894 35.4261 31.2273 34.9261 31.2273C34.1686 31.2273 33.4261 31.0644 32.6989 30.7386C31.9792 30.4129 31.3807 29.9167 30.9034 29.25C30.4337 28.5833 30.1989 27.7424 30.1989 26.7273V9.36364ZM43.6989 20.5V31H41.017V7.72727H43.6989V16.2727H43.9261C44.3352 15.3712 44.9489 14.6553 45.767 14.125C46.5928 13.5871 47.6913 13.3182 49.0625 13.3182C50.2519 13.3182 51.2936 13.5568 52.1875 14.0341C53.0814 14.5038 53.7746 15.2273 54.267 16.2045C54.767 17.1742 55.017 18.4091 55.017 19.9091V31H52.3352V20.0909C52.3352 18.7045 51.9754 17.6326 51.2557 16.875C50.5436 16.1098 49.5549 15.7273 48.2898 15.7273C47.411 15.7273 46.6231 15.9129 45.9261 16.2841C45.2367 16.6553 44.6913 17.197 44.2898 17.9091C43.8958 18.6212 43.6989 19.4848 43.6989 20.5ZM67.2415 31.3636C65.5597 31.3636 64.1089 30.9924 62.8892 30.25C61.6771 29.5 60.7415 28.4545 60.0824 27.1136C59.4309 25.7652 59.1051 24.197 59.1051 22.4091C59.1051 20.6212 59.4309 19.0455 60.0824 17.6818C60.7415 16.3106 61.6581 15.2424 62.8324 14.4773C64.0142 13.7045 65.393 13.3182 66.9688 13.3182C67.8778 13.3182 68.7756 13.4697 69.6619 13.7727C70.5483 14.0758 71.3551 14.5682 72.0824 15.25C72.8097 15.9242 73.3892 16.8182 73.821 17.9318C74.2528 19.0455 74.4688 20.4167 74.4688 22.0455V23.1818H61.0142V20.8636H71.7415C71.7415 19.8788 71.5445 19 71.1506 18.2273C70.7642 17.4545 70.2112 16.8447 69.4915 16.3977C68.7794 15.9508 67.9384 15.7273 66.9688 15.7273C65.9006 15.7273 64.9763 15.9924 64.196 16.5227C63.4233 17.0455 62.8286 17.7273 62.4119 18.5682C61.9953 19.4091 61.7869 20.3106 61.7869 21.2727V22.8182C61.7869 24.1364 62.0142 25.2538 62.4688 26.1705C62.9309 27.0795 63.571 27.7727 64.3892 28.25C65.2074 28.7197 66.1581 28.9545 67.2415 28.9545C67.946 28.9545 68.5824 28.8561 69.1506 28.6591C69.7263 28.4545 70.2225 28.1515 70.6392 27.75C71.0559 27.3409 71.3778 26.8333 71.6051 26.2273L74.196 26.9545C73.9233 27.8333 73.465 28.6061 72.821 29.2727C72.1771 29.9318 71.3816 30.447 70.4347 30.8182C69.4877 31.1818 68.4233 31.3636 67.2415 31.3636ZM78.5483 31V13.5455H81.1392V16.1818H81.321C81.6392 15.3182 82.215 14.6174 83.0483 14.0795C83.8816 13.5417 84.821 13.2727 85.8665 13.2727C86.0634 13.2727 86.3097 13.2765 86.6051 13.2841C86.9006 13.2917 87.1241 13.303 87.2756 13.3182V16.0455C87.1847 16.0227 86.9763 15.9886 86.6506 15.9432C86.3324 15.8902 85.9953 15.8636 85.6392 15.8636C84.7907 15.8636 84.0331 16.0417 83.3665 16.3977C82.7074 16.7462 82.1847 17.2311 81.7983 17.8523C81.4195 18.4659 81.2301 19.1667 81.2301 19.9545V31H78.5483Z" fill="white"/>
</g>
<defs>
<filter id="filter0_dd_73_5" x="0.0966187" y="7.40909" width="91.179" height="31.9546" filterUnits="userSpaceOnUse" color-interpolation-filters="sRGB">
<feFlood flood-opacity="0" result="BackgroundImageFix"/>
<feColorMatrix in="SourceAlpha" type="matrix" values="0 0 0 0 0 0 0 0 0 0 0 0 0 0 0 0 0 0 127 0" result="hardAlpha"/>
<feOffset dy="4"/>
<feGaussianBlur stdDeviation="2"/>
<feComposite in2="hardAlpha" operator="out"/>
<feColorMatrix type="matrix" values="0 0 0 0 0 0 0 0 0 0 0 0 0 0 0 0 0 0 0.25 0"/>
<feBlend mode="normal" in2="BackgroundImageFix" result="effect1_dropShadow_73_5"/>
<feColorMatrix in="SourceAlpha" type="matrix" values="0 0 0 0 0 0 0 0 0 0 0 0 0 0 0 0 0 0 127 0" result="hardAlpha"/>
<feOffset dy="4"/>
<feGaussianBlur stdDeviation="2"/>
<feComposite in2="hardAlpha" operator="out"/>
<feColorMatrix type="matrix" values="0 0 0 0 0 0 0 0 0 0 0 0 0 0 0 0 0 0 0.25 0"/>
<feBlend mode="normal" in2="effect1_dropShadow_73_5" result="effect2_dropShadow_73_5"/>
<feBlend mode="normal" in="SourceGraphic" in2="effect2_dropShadow_73_5" result="shape"/>
</filter>
</defs>
</svg>
