<svg width="44" height="58" viewBox="0 0 44 58" fill="none" xmlns="http://www.w3.org/2000/svg">
<path d="M27.5002 5.4375C27.5002 8.44059 25.0366 10.875 22.0002 10.875C18.9638 10.875 16.5003 8.44059 16.5003 5.4375C16.5003 2.43441 18.9638 0 22.0002 0C25.0366 0 27.5002 2.43441 27.5002 5.4375ZM26.5835 54.375C26.5835 56.3801 24.945 58 22.9169 58C20.8888 58 19.2502 56.3801 19.2502 54.375V39.875H17.4169V54.375C17.4169 56.3801 15.7784 58 13.7503 58C11.7222 58 10.0837 56.3801 10.0837 54.375V29.102L6.81006 34.4941C5.76736 36.2047 3.51468 36.7598 1.77876 35.7289C0.0427938 34.698 -0.518728 32.4777 0.524428 30.7559L7.20193 19.7789C9.18993 16.5051 12.7649 14.5 16.6263 14.5H20.7398C24.0169 14.5 27.122 15.9387 29.2074 18.4309L37.6521 28.5016C38.9469 30.0422 38.7292 32.3191 37.1709 33.5992C35.6126 34.8793 33.3095 34.6641 32.0147 33.1234L26.5835 26.6551V54.375ZM36.6667 43.5C36.6667 45.0066 35.4407 46.2188 33.9168 46.2188C32.3928 46.2188 31.1668 45.0066 31.1668 43.5V42.5938C31.1668 39.0934 34.0428 36.25 37.5834 36.25C41.124 36.25 44 39.0934 44 42.5938V55.2812C44 56.7879 42.774 58 41.25 58C39.7261 58 38.5001 56.7879 38.5001 55.2812V42.5938C38.5001 42.0953 38.0876 41.6875 37.5834 41.6875C37.0792 41.6875 36.6667 42.0953 36.6667 42.5938V43.5Z" fill="#EEEEEE"/>
</svg>
