<svg width="100" height="100" viewBox="0 0 100 100" fill="none" xmlns="http://www.w3.org/2000/svg">
<circle cx="50" cy="50" r="50" fill="#3A4750"/>
<path d="M55.5002 26.4375C55.5002 29.4406 53.0366 31.875 50.0002 31.875C46.9638 31.875 44.5003 29.4406 44.5003 26.4375C44.5003 23.4344 46.9638 21 50.0002 21C53.0366 21 55.5002 23.4344 55.5002 26.4375ZM54.5835 75.375C54.5835 77.3801 52.945 79 50.9169 79C48.8888 79 47.2502 77.3801 47.2502 75.375V60.875H45.4169V75.375C45.4169 77.3801 43.7784 79 41.7503 79C39.7222 79 38.0837 77.3801 38.0837 75.375V50.102L34.8101 55.4941C33.7674 57.2047 31.5147 57.7598 29.7788 56.7289C28.0428 55.698 27.4813 53.4777 28.5244 51.7559L35.2019 40.7789C37.1899 37.5051 40.7649 35.5 44.6263 35.5H48.7398C52.0169 35.5 55.122 36.9387 57.2074 39.4309L65.6521 49.5016C66.9469 51.0422 66.7292 53.3191 65.1709 54.5992C63.6126 55.8793 61.3095 55.6641 60.0147 54.1234L54.5835 47.6551V75.375ZM64.6667 64.5C64.6667 66.0066 63.4407 67.2188 61.9168 67.2188C60.3928 67.2188 59.1668 66.0066 59.1668 64.5V63.5938C59.1668 60.0934 62.0428 57.25 65.5834 57.25C69.124 57.25 72 60.0934 72 63.5938V76.2812C72 77.7879 70.774 79 69.25 79C67.7261 79 66.5001 77.7879 66.5001 76.2812V63.5938C66.5001 63.0953 66.0876 62.6875 65.5834 62.6875C65.0792 62.6875 64.6667 63.0953 64.6667 63.5938V64.5Z" fill="#EEEEEE"/>
</svg>
