<svg width="58" height="58" viewBox="0 0 58 58" fill="none" xmlns="http://www.w3.org/2000/svg">
<path d="M16.8449 19.4051L7.27379 9.83621C4.05773 13.4793 1.73434 17.9222 0.669492 22.8409C2.19879 23.268 3.7768 23.5625 5.4375 23.5625C9.7807 23.5625 13.7184 21.9652 16.8449 19.4051ZM22.0332 19.473L29 26.4398L48.1672 7.27266C43.0469 2.76066 36.352 0 29 0C28.1617 0 27.3234 0.055757 26.4059 0.126082C26.9383 1.82949 27.1875 3.60234 27.1875 5.4375C27.1875 10.7832 25.2391 15.6781 22.0332 19.473ZM23.5625 5.4375C23.5625 3.7768 23.2654 2.19879 22.845 0.669492C17.9211 1.73434 13.3785 4.05773 9.83621 7.27379L19.4062 16.8438C21.9652 13.7184 23.5625 9.7807 23.5625 5.4375ZM19.473 22.0332C15.6781 25.2391 10.7832 27.1875 5.4375 27.1875C3.60234 27.1875 1.82949 26.9342 0.125742 26.5043C0.055757 27.3234 0 28.1617 0 29C0 36.3554 2.76066 43.0469 7.27379 48.1672L26.4398 29L19.473 22.0332ZM35.9668 38.527L29 31.5602L9.83281 50.7273C14.8512 55.2359 21.648 58 29 58C29.8426 58 30.6709 57.9442 31.4956 57.8739C31.0617 56.1648 30.8125 54.3977 30.8125 52.5625C30.8125 47.2156 32.7609 42.3219 35.9668 38.527ZM41.1551 38.5949L50.7251 48.1649C53.9411 44.5218 56.2645 40.0789 57.3294 35.1602C55.8023 34.732 54.2277 34.4375 52.5625 34.4375C48.2238 34.4375 44.2816 36.0348 41.1551 38.5949ZM50.7273 9.83621L31.5602 29L38.5292 35.9691C42.3219 32.7609 47.2156 30.8125 52.5625 30.8125C54.3977 30.8125 56.1705 31.0658 57.8743 31.4957C57.9434 30.6766 58 29.8383 58 29C58 21.648 55.2359 14.8512 50.7273 9.83621ZM34.4375 52.5625C34.4375 54.2232 34.7346 55.8012 35.155 57.3305C40.0782 56.2657 44.52 53.9423 48.1597 50.7262L38.5897 41.1562C36.0348 44.2816 34.4375 48.2238 34.4375 52.5625Z" fill="#EEEEEE"/>
</svg>
