<svg width="100" height="100" viewBox="0 0 100 100" fill="none" xmlns="http://www.w3.org/2000/svg">
<circle cx="50" cy="50" r="50" fill="#3A4750"/>
<path d="M37.8449 40.4051L28.2738 30.8362C25.0577 34.4793 22.7343 38.9222 21.6695 43.8409C23.1988 44.268 24.7768 44.5625 26.4375 44.5625C30.7807 44.5625 34.7184 42.9652 37.8449 40.4051ZM43.0332 40.473L50 47.4398L69.1672 28.2727C64.0469 23.7607 57.352 21 50 21C49.1617 21 48.3234 21.0558 47.4059 21.1261C47.9383 22.8295 48.1875 24.6023 48.1875 26.4375C48.1875 31.7832 46.2391 36.6781 43.0332 40.473ZM44.5625 26.4375C44.5625 24.7768 44.2654 23.1988 43.845 21.6695C38.9211 22.7343 34.3785 25.0577 30.8362 28.2738L40.4062 37.8438C42.9652 34.7184 44.5625 30.7807 44.5625 26.4375ZM40.473 43.0332C36.6781 46.2391 31.7832 48.1875 26.4375 48.1875C24.6023 48.1875 22.8295 47.9342 21.1257 47.5043C21.0558 48.3234 21 49.1617 21 50C21 57.3554 23.7607 64.0469 28.2738 69.1672L47.4398 50L40.473 43.0332ZM56.9668 59.527L50 52.5602L30.8328 71.7273C35.8512 76.2359 42.648 79 50 79C50.8426 79 51.6709 78.9442 52.4956 78.8739C52.0617 77.1648 51.8125 75.3977 51.8125 73.5625C51.8125 68.2156 53.7609 63.3219 56.9668 59.527ZM62.1551 59.5949L71.7251 69.1649C74.9411 65.5218 77.2645 61.0789 78.3294 56.1602C76.8023 55.732 75.2277 55.4375 73.5625 55.4375C69.2238 55.4375 65.2816 57.0348 62.1551 59.5949ZM71.7273 30.8362L52.5602 50L59.5292 56.9691C63.3219 53.7609 68.2156 51.8125 73.5625 51.8125C75.3977 51.8125 77.1705 52.0658 78.8743 52.4957C78.9434 51.6766 79 50.8383 79 50C79 42.648 76.2359 35.8512 71.7273 30.8362ZM55.4375 73.5625C55.4375 75.2232 55.7346 76.8012 56.155 78.3305C61.0782 77.2657 65.52 74.9423 69.1597 71.7262L59.5897 62.1562C57.0348 65.2816 55.4375 69.2238 55.4375 73.5625Z" fill="#EEEEEE"/>
</svg>
