<svg width="100" height="100" viewBox="0 0 100 100" fill="none" xmlns="http://www.w3.org/2000/svg">
<g clip-path="url(#clip0_76_11)">
<path d="M32.3281 47.871C26.7188 49.9217 22.9375 55.9374 23.3281 62.3631C25.1094 59.8631 27.8281 57.7147 31.1406 56.328L32.3281 47.871ZM14.9656 57.5975L10.0172 22.5585C9.95938 22.246 10.0578 22.0506 10.0578 22.0506C19.0813 15.7753 29.2922 12.4823 39.5891 12.4823C39.843 12.4823 40.0755 12.4968 40.3294 12.4968C42.3763 9.86012 45.2903 8.05348 48.395 7.41871C51.3434 6.83277 54.3513 6.5398 57.3403 6.39332C55.778 3.65895 53.5169 1.65309 50.8028 1.11598C47.0731 0.35914 43.3184 -0.0035553 39.5888 -0.0035553C27.5981 -0.0035553 15.7763 3.79527 5.19813 11.1429C1.40954 13.7831 -0.602027 19.2381 0.159536 24.7264L5.12032 59.7655C7.34688 75.4881 26.4172 87.4999 37.0734 87.4999C37.6398 87.4999 38.1323 87.4417 38.6406 87.3684C36.5313 84.0227 34.25 79.4583 32.4688 74.1595C25.0156 71.6405 15.8906 64.0624 14.9656 57.5975ZM30.2188 30.7811C30.0938 29.9608 29.8594 29.2381 29.5781 28.5545C28.2892 30.2879 26.3563 31.6307 24.0703 32.1424C21.7859 32.6307 19.5781 32.2159 17.8984 31.1172C17.8203 31.8985 17.8008 32.6794 17.918 33.4844C18.5039 37.7325 21.7461 40.5626 25.1445 39.8067C28.5313 39.0819 30.8281 35.0194 30.2188 30.7811ZM94.8125 23.6327C80.9266 13.9881 64.9063 10.4725 49.2031 13.5975C44.9219 14.2772 41.5313 18.7206 40.75 24.0428L35.7813 59.2772C33.3797 76.2948 50.6766 97.617 60.5156 99.7655C70.2188 101.939 92.4688 89.2811 94.875 72.2655L99.8359 37.2069C100.609 31.6991 98.5937 26.2499 94.8125 23.6327ZM52.1094 42.5389C52.7148 38.2909 55.9563 35.4588 59.3547 36.2167C62.7531 36.9491 65.0188 40.9999 64.4328 45.2245C64.3156 46.0301 64.0813 46.7622 63.7883 47.4706C62.4994 45.7128 60.5664 44.3944 58.2805 43.8827C55.9758 43.37 53.7883 43.8093 52.1086 44.8835C51.8906 44.121 52.0156 43.3397 52.1094 42.5389ZM62.9844 81.3475C54.2938 79.4188 48.3766 69.7792 49.0797 59.453C52.3016 64.4588 57.8688 68.4842 64.625 69.9745C71.3828 71.4637 77.7094 70.0483 82.1094 66.7284C80.0312 76.6991 71.8281 83.2616 62.9844 81.3475ZM83.5 51.7967C82.2111 50.0633 80.2578 48.7206 77.9734 48.2088C75.6891 47.7206 73.5016 48.1354 71.8016 49.234C71.7234 48.4528 71.7039 47.6719 71.8211 46.8669C72.4266 42.6188 75.668 39.7868 79.0664 40.5446C82.4648 41.3014 84.7305 45.3278 84.1242 49.5758C84 50.371 83.7656 51.1131 83.5 51.7967Z" fill="#EEEEEE"/>
</g>
<defs>
<clipPath id="clip0_76_11">
<rect width="100" height="100" fill="white"/>
</clipPath>
</defs>
</svg>
